<?xml version="1.0" encoding="utf-8"?>
<!-- Generator: Adobe Illustrator 27.5.0, SVG Export Plug-In . SVG Version: 6.00 Build 0)  -->
<svg version="1.1" id="Calque_1" xmlns="http://www.w3.org/2000/svg" xmlns:xlink="http://www.w3.org/1999/xlink" x="0px" y="0px"
	 viewBox="0 0 24.7 24.5" style="enable-background:new 0 0 24.7 24.5;" xml:space="preserve">
<style type="text/css">
	.st0{stroke:#000000;stroke-miterlimit:10;}
	.st1{fill:#FFFFFF;}
	.st2{stroke:#000000;stroke-width:0.5;stroke-miterlimit:10;}
</style>
<path class="st0" d="M19.8,23.3H5.2c-1.8,0-3.2-1.4-3.2-3.2V6.7C2,5,3.5,3.5,5.2,3.5h14.6C21.5,3.5,23,5,23,6.7v13.4
	C23,21.9,21.5,23.3,19.8,23.3z M5.2,4.5C4,4.5,3,5.5,3,6.7v13.4c0,1.2,1,2.2,2.2,2.2h14.6c1.2,0,2.2-1,2.2-2.2V6.7
	c0-1.2-1-2.2-2.2-2.2H5.2z"/>
<rect x="2.5" y="9.6" class="st0" width="20" height="1"/>
<g>
	<path class="st1" d="M7.1,6.2L7.1,6.2C6.4,6.2,5.9,5.6,5.9,5V3c0-0.7,0.5-1.2,1.2-1.2h0c0.7,0,1.2,0.5,1.2,1.2v2
		C8.3,5.6,7.7,6.2,7.1,6.2z"/>
	<path class="st2" d="M7.2,6.7H6.9C6.1,6.7,5.4,6,5.4,5.1V2.9c0-0.8,0.7-1.5,1.5-1.5h0.3c0.8,0,1.5,0.7,1.5,1.5v2.3
		C8.7,6,8.1,6.7,7.2,6.7z M6.9,2.3c-0.3,0-0.6,0.3-0.6,0.6v2.3c0,0.3,0.3,0.6,0.6,0.6h0.3c0.3,0,0.6-0.3,0.6-0.6V2.9
		c0-0.3-0.3-0.6-0.6-0.6H6.9z"/>
</g>
<g>
	<path class="st1" d="M18.1,6.2L18.1,6.2c-0.7,0-1.2-0.5-1.2-1.2V3c0-0.7,0.5-1.2,1.2-1.2h0c0.7,0,1.2,0.5,1.2,1.2v2
		C19.3,5.6,18.8,6.2,18.1,6.2z"/>
	<path class="st2" d="M18.2,6.7H18c-0.8,0-1.5-0.7-1.5-1.5V2.9c0-0.8,0.7-1.5,1.5-1.5h0.3c0.8,0,1.5,0.7,1.5,1.5v2.3
		C19.8,6,19.1,6.7,18.2,6.7z M18,2.3c-0.3,0-0.6,0.3-0.6,0.6v2.3c0,0.3,0.3,0.6,0.6,0.6h0.3c0.3,0,0.6-0.3,0.6-0.6V2.9
		c0-0.3-0.3-0.6-0.6-0.6H18z"/>
</g>
</svg>
