<?xml version="1.0" encoding="utf-8"?>
<!-- Generator: Adobe Illustrator 27.3.1, SVG Export Plug-In . SVG Version: 6.00 Build 0)  -->
<svg version="1.1" id="Calque_1" xmlns="http://www.w3.org/2000/svg" xmlns:xlink="http://www.w3.org/1999/xlink" x="0px" y="0px"
	 viewBox="0 0 35.9 35.9" style="enable-background:new 0 0 35.9 35.9;" xml:space="preserve">
<style type="text/css">
	.st0{fill:#6DE1FC;}
</style>
<g>
	<g>
		<path class="st0" d="M27.3,6.8c-1.2,0-2,0.9-2,2c0,1.1,0.9,2,2,2c1.2,0,2-0.9,2-2C29.3,7.6,28.4,6.8,27.3,6.8z"/>
		<path class="st0" d="M35.3,17.7c0-1.9,0-4.1-0.1-6.4c0-1.2-0.2-2.3-0.5-3.4c-0.3-1.2-0.8-2.4-1.6-3.3c-1.5-1.9-3.5-3-5.8-3.4
			c-1.5-0.3-3.1-0.3-4.6-0.3c-3.6,0-7.2-0.1-10.8,0c-0.5,0-1,0-1.5,0.1C9.3,0.9,8.1,1.1,7,1.5c-1.7,0.6-3.1,1.6-4.1,3
			c-1,1.3-1.5,2.9-1.8,4.5c-0.2,1.4-0.2,2.9-0.3,4.3c0,2.4,0,4.7,0,7.1c0,1.9,0,3.8,0.2,5.7c0.1,1.2,0.4,2.4,0.9,3.6
			c0.7,1.5,1.7,2.7,3.1,3.7c1.3,0.9,2.7,1.3,4.2,1.6c1.3,0.2,2.7,0.2,4,0.2c3.8,0,7.7,0.1,11.5-0.1c1.1,0,2.3-0.2,3.4-0.4
			c1.3-0.3,2.6-0.9,3.7-1.8c1.2-1,2.1-2.2,2.6-3.6c0.5-1.3,0.7-2.7,0.8-4.1c0.1-1.2,0.1-2.3,0.1-3.5C35.3,20.5,35.3,19.2,35.3,17.7z
			 M32.3,21.3c0,1.3,0,2.7-0.1,4c-0.1,1.2-0.3,2.3-0.8,3.4c-0.6,1.2-1.5,2.1-2.7,2.7c-1,0.5-2,0.6-3,0.7c-1.3,0.1-2.5,0.1-3.8,0.1
			c-1.3,0-2.6,0-3.8,0c-1.1,0-2.2,0-3.2,0c-1.4,0-2.7,0-4.1-0.1c-1.1-0.1-2.3-0.3-3.3-0.8c-1.2-0.6-2.1-1.5-2.7-2.7
			c-0.5-1.1-0.7-2.3-0.8-3.6c-0.2-3.5-0.1-6.9-0.1-10.4c0-1.1,0-2.1,0.1-3.2c0-0.9,0.1-1.9,0.3-2.8c0.2-1,0.7-2,1.4-2.8
			c0.7-0.7,1.5-1.2,2.4-1.6c1-0.3,2-0.5,3-0.5c3.4-0.1,6.8-0.1,10.2-0.1c1.4,0,2.7,0,4.1,0.1c1.1,0.1,2.3,0.3,3.3,0.8
			C29.4,5,30,5.4,30.5,6c0.9,1,1.3,2.2,1.5,3.5c0.1,0.8,0.2,1.7,0.2,2.5C32.4,15.1,32.3,18.2,32.3,21.3z"/>
		<path class="st0" d="M18.1,9.2c-4.9,0-8.9,4-8.9,8.8c0,4.9,4,8.9,8.8,8.9s8.9-4,8.9-8.9C26.9,13.1,23,9.2,18.1,9.2z M18,23.8
			c-3.1,0-5.8-2.7-5.8-5.9c0-3.1,2.7-5.8,5.9-5.7c3.1,0,5.8,2.6,5.7,5.8C23.9,21.2,21.2,23.9,18,23.8z"/>
	</g>
</g>
</svg>
