<?xml version="1.0" encoding="utf-8"?>
<!-- Generator: Adobe Illustrator 27.3.1, SVG Export Plug-In . SVG Version: 6.00 Build 0)  -->
<svg version="1.1" id="Calque_1" xmlns="http://www.w3.org/2000/svg" xmlns:xlink="http://www.w3.org/1999/xlink" x="0px" y="0px"
	 viewBox="0 0 35.9 35.9" style="enable-background:new 0 0 35.9 35.9;" xml:space="preserve">
<style type="text/css">
	.st0{fill:#6DE1FC;}
</style>
<path class="st0" d="M35.1,7.2c-1.3,0.6-2.6,0.9-4.1,1.1c1.5-0.9,2.6-2.3,3.1-3.9c-1.4,0.8-2.9,1.4-4.5,1.7
	c-1.3-1.4-3.2-2.2-5.2-2.2c-3.9,0-7.1,3.2-7.1,7.1c0,0.6,0.1,1.1,0.2,1.6C11.6,12.3,6.3,9.5,2.8,5.1c-0.6,1.1-1,2.3-1,3.6
	c0,2.5,1.3,4.7,3.2,5.9c-1.2,0-2.3-0.4-3.2-0.9c0,0,0,0.1,0,0.1c0,3.5,2.5,6.3,5.7,7c-0.6,0.2-1.2,0.2-1.9,0.2c-0.5,0-0.9,0-1.3-0.1
	c0.9,2.8,3.5,4.9,6.7,4.9c-2.4,1.9-5.5,3-8.8,3c-0.6,0-1.1,0-1.7-0.1c3.2,2,6.9,3.2,10.9,3.2c13.1,0,20.3-10.9,20.3-20.3
	c0-0.3,0-0.6,0-0.9C32.9,9.9,34.2,8.6,35.1,7.2z"/>
</svg>
